<mxfile host="app.diagrams.net" agent="Mozilla/5.0 (Windows NT 10.0; Win64; x64) AppleWebKit/537.36 (KHTML, like Gecko) Chrome/130.0.0.0 Safari/537.36" version="24.8.1">
  <diagram name="Page-1" id="2YBvvXClWsGukQMizWep">
    <mxGraphModel dx="607" dy="340" grid="1" gridSize="10" guides="1" tooltips="1" connect="1" arrows="1" fold="1" page="1" pageScale="1" pageWidth="850" pageHeight="1100" math="0" shadow="0">
      <root>
        <mxCell id="0" />
        <mxCell id="1" parent="0" />
        <mxCell id="lpj2yMmAfLI2rtStVb46-2" value="" style="shape=umlLifeline;perimeter=lifelinePerimeter;whiteSpace=wrap;html=1;container=1;dropTarget=0;collapsible=0;recursiveResize=0;outlineConnect=0;portConstraint=eastwest;newEdgeStyle={&quot;curved&quot;:0,&quot;rounded&quot;:0};participant=umlActor;" vertex="1" parent="1">
          <mxGeometry x="170" y="164" width="20" height="370" as="geometry" />
        </mxCell>
        <mxCell id="lpj2yMmAfLI2rtStVb46-3" value="&lt;b&gt;&lt;font style=&quot;font-size: 15px;&quot;&gt;Interface&lt;/font&gt;&lt;/b&gt;" style="shape=umlLifeline;perimeter=lifelinePerimeter;whiteSpace=wrap;html=1;container=1;dropTarget=0;collapsible=0;recursiveResize=0;outlineConnect=0;portConstraint=eastwest;newEdgeStyle={&quot;curved&quot;:0,&quot;rounded&quot;:0};" vertex="1" parent="1">
          <mxGeometry x="270" y="174" width="100" height="360" as="geometry" />
        </mxCell>
        <mxCell id="lpj2yMmAfLI2rtStVb46-4" value="" style="html=1;points=[[0,0,0,0,5],[0,1,0,0,-5],[1,0,0,0,5],[1,1,0,0,-5]];perimeter=orthogonalPerimeter;outlineConnect=0;targetShapes=umlLifeline;portConstraint=eastwest;newEdgeStyle={&quot;curved&quot;:0,&quot;rounded&quot;:0};" vertex="1" parent="lpj2yMmAfLI2rtStVb46-3">
          <mxGeometry x="45" y="70" width="10" height="270" as="geometry" />
        </mxCell>
        <mxCell id="lpj2yMmAfLI2rtStVb46-5" value="&lt;b&gt;&lt;font style=&quot;font-size: 15px;&quot;&gt;Views&lt;/font&gt;&lt;/b&gt;" style="shape=umlLifeline;perimeter=lifelinePerimeter;whiteSpace=wrap;html=1;container=1;dropTarget=0;collapsible=0;recursiveResize=0;outlineConnect=0;portConstraint=eastwest;newEdgeStyle={&quot;curved&quot;:0,&quot;rounded&quot;:0};" vertex="1" parent="1">
          <mxGeometry x="502" y="174" width="100" height="360" as="geometry" />
        </mxCell>
        <mxCell id="lpj2yMmAfLI2rtStVb46-6" value="" style="html=1;points=[[0,0,0,0,5],[0,1,0,0,-5],[1,0,0,0,5],[1,1,0,0,-5]];perimeter=orthogonalPerimeter;outlineConnect=0;targetShapes=umlLifeline;portConstraint=eastwest;newEdgeStyle={&quot;curved&quot;:0,&quot;rounded&quot;:0};" vertex="1" parent="lpj2yMmAfLI2rtStVb46-5">
          <mxGeometry x="45" y="80" width="10" height="230" as="geometry" />
        </mxCell>
        <mxCell id="lpj2yMmAfLI2rtStVb46-7" value="&lt;b&gt;&lt;font style=&quot;font-size: 15px;&quot;&gt;MiseEnOeuvre&lt;/font&gt;&lt;/b&gt;" style="shape=umlLifeline;perimeter=lifelinePerimeter;whiteSpace=wrap;html=1;container=1;dropTarget=0;collapsible=0;recursiveResize=0;outlineConnect=0;portConstraint=eastwest;newEdgeStyle={&quot;curved&quot;:0,&quot;rounded&quot;:0};" vertex="1" parent="1">
          <mxGeometry x="850" y="174" width="118" height="360" as="geometry" />
        </mxCell>
        <mxCell id="lpj2yMmAfLI2rtStVb46-8" value="" style="html=1;points=[[0,0,0,0,5],[0,1,0,0,-5],[1,0,0,0,5],[1,1,0,0,-5]];perimeter=orthogonalPerimeter;outlineConnect=0;targetShapes=umlLifeline;portConstraint=eastwest;newEdgeStyle={&quot;curved&quot;:0,&quot;rounded&quot;:0};" vertex="1" parent="lpj2yMmAfLI2rtStVb46-7">
          <mxGeometry x="54" y="100" width="10" height="50" as="geometry" />
        </mxCell>
        <mxCell id="lpj2yMmAfLI2rtStVb46-11" value="AfficherMiseEnOeuvre()" style="html=1;verticalAlign=bottom;endArrow=block;curved=0;rounded=0;entryX=0;entryY=0;entryDx=0;entryDy=5;entryPerimeter=0;" edge="1" parent="1" source="lpj2yMmAfLI2rtStVb46-2" target="lpj2yMmAfLI2rtStVb46-4">
          <mxGeometry relative="1" as="geometry">
            <mxPoint x="170" y="251" as="sourcePoint" />
            <mxPoint x="320" y="251" as="targetPoint" />
            <Array as="points" />
            <mxPoint as="offset" />
          </mxGeometry>
        </mxCell>
        <mxCell id="lpj2yMmAfLI2rtStVb46-12" value="&lt;span style=&quot;text-align: left;&quot;&gt;GetInfosMiseEnOeuvre&lt;/span&gt;" style="html=1;verticalAlign=bottom;endArrow=open;dashed=1;endSize=8;curved=0;rounded=0;exitX=0;exitY=1;exitDx=0;exitDy=-5;" edge="1" parent="1" source="lpj2yMmAfLI2rtStVb46-4" target="lpj2yMmAfLI2rtStVb46-2">
          <mxGeometry relative="1" as="geometry">
            <mxPoint x="332" y="349" as="targetPoint" />
          </mxGeometry>
        </mxCell>
        <mxCell id="lpj2yMmAfLI2rtStVb46-13" value="GetMiseENOeuvre(id_instruction_validee)" style="html=1;verticalAlign=bottom;endArrow=block;curved=0;rounded=0;entryX=0;entryY=0;entryDx=0;entryDy=5;" edge="1" parent="1" source="lpj2yMmAfLI2rtStVb46-3" target="lpj2yMmAfLI2rtStVb46-6">
          <mxGeometry relative="1" as="geometry">
            <mxPoint x="446" y="274" as="sourcePoint" />
          </mxGeometry>
        </mxCell>
        <mxCell id="lpj2yMmAfLI2rtStVb46-14" value="GetAllMiseEnOeuvreByIdInstructionValidee(id_instruction_validee)" style="html=1;verticalAlign=bottom;endArrow=block;curved=0;rounded=0;entryX=0;entryY=0;entryDx=0;entryDy=5;" edge="1" parent="1" source="lpj2yMmAfLI2rtStVb46-5" target="lpj2yMmAfLI2rtStVb46-8">
          <mxGeometry x="0.0028" relative="1" as="geometry">
            <mxPoint x="672" y="279" as="sourcePoint" />
            <mxPoint as="offset" />
          </mxGeometry>
        </mxCell>
        <mxCell id="lpj2yMmAfLI2rtStVb46-15" value="AllMiseEnOeuvre" style="html=1;verticalAlign=bottom;endArrow=open;dashed=1;endSize=8;curved=0;rounded=0;exitX=0;exitY=1;exitDx=0;exitDy=-5;" edge="1" parent="1" source="lpj2yMmAfLI2rtStVb46-8" target="lpj2yMmAfLI2rtStVb46-5">
          <mxGeometry x="0.0028" relative="1" as="geometry">
            <mxPoint x="672" y="349" as="targetPoint" />
            <mxPoint as="offset" />
          </mxGeometry>
        </mxCell>
        <mxCell id="lpj2yMmAfLI2rtStVb46-16" value="" style="html=1;verticalAlign=bottom;endArrow=block;curved=0;rounded=0;" edge="1" parent="1" source="lpj2yMmAfLI2rtStVb46-5">
          <mxGeometry relative="1" as="geometry">
            <mxPoint x="862" y="410" as="sourcePoint" />
            <mxPoint x="674.4000000000001" y="534" as="targetPoint" />
          </mxGeometry>
        </mxCell>
        <mxCell id="lpj2yMmAfLI2rtStVb46-18" value="&lt;b&gt;LOOP&lt;/b&gt;:&amp;nbsp;&lt;span style=&quot;font-size: 11px; text-wrap-mode: nowrap; background-color: rgb(255, 255, 255);&quot;&gt;AllMiseEnOeuvre&lt;/span&gt;" style="shape=umlFrame;whiteSpace=wrap;html=1;pointerEvents=0;recursiveResize=0;container=1;collapsible=0;width=160;height=25;" vertex="1" parent="1">
          <mxGeometry x="140" y="336" width="850" height="95" as="geometry" />
        </mxCell>
        <mxCell id="lpj2yMmAfLI2rtStVb46-19" value="" style="html=1;points=[[0,0,0,0,5],[0,1,0,0,-5],[1,0,0,0,5],[1,1,0,0,-5]];perimeter=orthogonalPerimeter;outlineConnect=0;targetShapes=umlLifeline;portConstraint=eastwest;newEdgeStyle={&quot;curved&quot;:0,&quot;rounded&quot;:0};" vertex="1" parent="lpj2yMmAfLI2rtStVb46-18">
          <mxGeometry x="417" y="48.5" width="10" height="40" as="geometry" />
        </mxCell>
        <mxCell id="lpj2yMmAfLI2rtStVb46-20" value="GetInfosMiseEnOeuvre" style="html=1;align=left;spacingLeft=2;endArrow=block;rounded=0;edgeStyle=orthogonalEdgeStyle;curved=0;rounded=0;" edge="1" parent="1" target="lpj2yMmAfLI2rtStVb46-19">
          <mxGeometry x="-0.2308" relative="1" as="geometry">
            <mxPoint x="551.5" y="362" as="sourcePoint" />
            <Array as="points">
              <mxPoint x="612" y="362" />
              <mxPoint x="612" y="412" />
            </Array>
            <mxPoint y="1" as="offset" />
          </mxGeometry>
        </mxCell>
        <mxCell id="lpj2yMmAfLI2rtStVb46-21" value="&lt;span style=&quot;text-align: left;&quot;&gt;InfosMiseEnOeuvre&lt;/span&gt;" style="html=1;verticalAlign=bottom;endArrow=open;dashed=1;endSize=8;curved=0;rounded=0;exitX=0;exitY=1;exitDx=0;exitDy=-5;exitPerimeter=0;" edge="1" parent="1" source="lpj2yMmAfLI2rtStVb46-6" target="lpj2yMmAfLI2rtStVb46-3">
          <mxGeometry relative="1" as="geometry">
            <mxPoint x="521" y="704" as="sourcePoint" />
            <mxPoint x="441" y="704" as="targetPoint" />
          </mxGeometry>
        </mxCell>
        <mxCell id="lpj2yMmAfLI2rtStVb46-24" value="Seq : Consulter Instruction Globales" style="shape=umlFrame;whiteSpace=wrap;html=1;pointerEvents=0;width=210;height=30;" vertex="1" parent="1">
          <mxGeometry x="90" y="123" width="890" height="410" as="geometry" />
        </mxCell>
        <mxCell id="lpj2yMmAfLI2rtStVb46-25" value="&lt;b&gt;&lt;font style=&quot;font-size: 15px;&quot;&gt;user&lt;/font&gt;&lt;/b&gt;" style="text;html=1;align=center;verticalAlign=middle;whiteSpace=wrap;rounded=0;" vertex="1" parent="1">
          <mxGeometry x="150" y="204" width="60" height="30" as="geometry" />
        </mxCell>
      </root>
    </mxGraphModel>
  </diagram>
</mxfile>
